<svg width="512" height="512" viewBox="0 0 512 512" fill="none" xmlns="http://www.w3.org/2000/svg">
  <rect width="512" height="512" rx="64" fill="#000000"/>
  <g transform="translate(96, 96)">
    <!-- Perfume bottle shape -->
    <path d="M160 48 L160 80 L144 80 L144 96 L112 96 L112 288 L208 288 L208 96 L176 96 L176 80 L160 80 L160 48 Z" fill="#ffffff" stroke="#ffffff" stroke-width="4"/>
    
    <!-- Bottle cap -->
    <rect x="152" y="32" width="16" height="20" rx="4" fill="#ffffff"/>
    
    <!-- Perfume liquid -->
    <rect x="120" y="104" width="80" height="176" rx="4" fill="#FFD700" opacity="0.8"/>
    
    <!-- Spray nozzle -->
    <circle cx="160" cy="24" r="8" fill="#ffffff"/>
    <rect x="156" y="8" width="8" height="20" fill="#ffffff"/>
    
    <!-- Label -->
    <rect x="128" y="160" width="64" height="32" rx="2" fill="#000000" opacity="0.3"/>
    <text x="160" y="180" text-anchor="middle" fill="#ffffff" font-family="Arial, sans-serif" font-size="16" font-weight="bold">PP</text>
    
    <!-- Decorative elements -->
    <circle cx="160" cy="220" r="6" fill="#ffffff" opacity="0.5"/>
    <circle cx="160" cy="240" r="4" fill="#ffffff" opacity="0.3"/>
    <circle cx="160" cy="260" r="3" fill="#ffffff" opacity="0.2"/>
    
    <!-- Additional luxury details -->
    <rect x="140" y="120" width="40" height="2" fill="#ffffff" opacity="0.4"/>
    <rect x="140" y="128" width="40" height="2" fill="#ffffff" opacity="0.4"/>
  </g>
</svg>